{"title":"I.Spit.on.Your.Grave.2010.BRRIP.720P.H264-ZEKTORM","uid":6147951,"size":2516904138,"categoryP":"video","categoryS":"hd___movies","magnet":"?xt=urn:btih:f5268f06f094b387d3d7fe8486cccc7a7ed5992f&amp;dn=I.Spit.on.Your.Grave.2010.BRRIP.720P.H264-ZEKTORM&amp;tr=udp%3A%2F%2Ftracker.openbittorrent.com%3A80&amp;tr=udp%3A%2F%2Fopen.demonii.com%3A1337&amp;tr=udp%3A%2F%2Ftracker.coppersurfer.tk%3A6969&amp;tr=udp%3A%2F%2Fexodus.desync.com%3A6969","seeders":0,"leechers":1,"uploader":"blowley","files":4,"time":1296762431,"description":"Title                            : I Spit on Your Grave\nYear                             : 2010\nGenre                            : Crime | Horror | Thriller\niMDB URL                         : http://www.imdb.com/title/tt1242432/\n\nComplete name                    : I.Spit.on.Your.Grave.2010.BRRIP.720P.H264-ZEKTORM.mp4\nFormat                           : MPEG-4\nFormat profile                   : Base Media\nCodec ID                         : isom\nFile size                        : 2.34 GiB\nDuration                         : 1h 48mn (Unrated)\nOverall bit rate                 : 3100 Kbps\nSubtitles                        : English (Format: srt)\n\nVideo\nID                               : 1\nFormat                           : AVC\nFormat/Info                      : Advanced Video Codec\nFormat profile                   : &lt;a class=&quot;__cf_email__&quot; href=&quot;/cdn-cgi/l/email-protection&quot; data-cfemail=&quot;dd95b4bab59d91e9f3ed&quot;&gt;[email&amp;#160;protected]&lt;/a&gt;&lt;script cf-hash='f9e31' type=&quot;text/javascript&quot;&gt;\n/* &lt;![CDATA[ */!function(){try{var t=&quot;currentScript&quot;in document?document.currentScript:function(){for(var t=document.getElementsByTagName(&quot;script&quot;),e=t.length;e--;)if(t[e].getAttribute(&quot;cf-hash&quot;))return t[e]}();if(t&amp;&amp;t.previousSibling){var e,r,n,i,c=t.previousSibling,a=c.getAttribute(&quot;data-cfemail&quot;);if(a){for(e=&quot;&quot;,r=parseInt(a.substr(0,2),16),n=2;a.length-n;n+=2)i=parseInt(a.substr(n,2),16)^r,e+=String.fromCharCode(i);e=document.createTextNode(e),c.parentNode.replaceChild(e,c)}}}catch(u){}}();/* ]]&gt; */&lt;/script&gt;\nFormat settings, CABAC           : Yes\nFormat settings, ReFrames        : 12 frames\nCodec ID                         : avc1\nCodec ID/Info                    : Advanced Video Coding\nDuration                         : 1h 48mn\nBit rate mode                    : Variable\nBit rate                         : 2888 Kbps\nWidth                            : 1280 pixels\nHeight                           : 544 pixels\nDisplay aspect ratio             : 2.35\nFrame rate mode                  : Constant\nFrame rate                       : 23.976 fps\nResolution                       : 24 bits\nColorimetry                      : 4:2:0\nScan type                        : Progressive\nBits/(Pixel*Frame)               : 0.173\nStream size                      : 2.18 GiB (93%)\nTitle                            : Video\nWriting library                  : x264\n\nAudio\nID                               : 2\nFormat                           : AAC\nFormat/Info                      : Advanced Audio Codec\nFormat version                   : Version 4\nFormat profile                   : LC\nFormat settings, SBR             : Yes\nFormat settings, PS              : No\nCodec ID                         : 40\nDuration                         : 1h 48mn\nBit rate mode                    : Variable\nBit rate                         : 209 Kbps\nMaximum bit rate                 : 258 Kbps\nChannel(s)                       : 6 channels\nChannel positions                : Front: L C R, Rear: L R, LFE\nSampling rate                    : 48.0 KHz\nResolution                       : 16 bits\nStream size                      : 162 MiB (7%)\nLanguage                         : English\n\n\n\nScreenshots:\n &lt;a href=&quot;\nhttp://img233.imageshack.us/img233/1199/snapisoyg1.png&quot; rel=&quot;nofollow&quot; target=&quot;_NEW&quot;&gt;\nhttp://img233.imageshack.us/img233/1199/snapisoyg1.png&lt;/a&gt;\n &lt;a href=&quot;\nhttp://img201.imageshack.us/img201/4658/snapisoyg2.png&quot; rel=&quot;nofollow&quot; target=&quot;_NEW&quot;&gt;\nhttp://img201.imageshack.us/img201/4658/snapisoyg2.png&lt;/a&gt;\n &lt;a href=&quot;\nhttp://img39.imageshack.us/img39/9154/snapisoyg3.png&quot; rel=&quot;nofollow&quot; target=&quot;_NEW&quot;&gt;\nhttp://img39.imageshack.us/img39/9154/snapisoyg3.png&lt;/a&gt;\n &lt;a href=&quot;\nhttp://img683.imageshack.us/img683/8882/snapisoyg4.png&quot; rel=&quot;nofollow&quot; target=&quot;_NEW&quot;&gt;\nhttp://img683.imageshack.us/img683/8882/snapisoyg4.png&lt;/a&gt;\n &lt;a href=&quot;\nhttp://img200.imageshack.us/img200/5021/snapisoyg5.png&quot; rel=&quot;nofollow&quot; target=&quot;_NEW&quot;&gt;\nhttp://img200.imageshack.us/img200/5021/snapisoyg5.png&lt;/a&gt;\n","torrent":{"xt":"urn:btih:f5268f06f094b387d3d7fe8486cccc7a7ed5992f","amp;dn":"I.Spit.on.Your.Grave.2010.BRRIP.720P.H264-ZEKTORM","amp;tr":["udp%3A%2F%2Ftracker.openbittorrent.com%3A80","udp%3A%2F%2Fopen.demonii.com%3A1337","udp%3A%2F%2Ftracker.coppersurfer.tk%3A6969","udp%3A%2F%2Fexodus.desync.com%3A6969"],"infoHash":"f5268f06f094b387d3d7fe8486cccc7a7ed5992f","infoHashBuffer":{"type":"Buffer","data":[245,38,143,6,240,148,179,135,211,215,254,132,134,204,204,122,126,213,153,47]},"announce":[],"urlList":[]}}